<svg xmlns="http://www.w3.org/2000/svg" width="1200" height="420" viewBox="0 0 1200 420" font-family="'JetBrains Mono','SF Mono',monospace">
  <rect width="1200" height="420" fill="#0b0e14"/>
  <rect width="1200" height="44" fill="#161b22"/>
  <text x="32" y="29" fill="#e6edf3" font-size="18" font-weight="700" letter-spacing="1">FINOPS</text>
  <rect x="118" y="13" width="92" height="20" rx="3" fill="#388bfd"/>
  <text x="128" y="28" fill="#fff" font-size="12" font-weight="700">TERMINAL</text>
  <circle cx="1050" cy="22" r="4" fill="#3fb950"/>
  <text x="1062" y="27" fill="#8b949e" font-size="12">CANLI</text>
  <text x="1120" y="27" fill="#6e7681" font-size="12">14:52</text>

  <!-- hero KPI cards -->
  <g transform="translate(32,72)">
    <rect width="270" height="96" rx="8" fill="#10243f" stroke="#388bfd" stroke-width="1"/>
    <text x="16" y="26" fill="#6e7681" font-size="11" letter-spacing="1">PORTFÖY NET DEĞER</text>
    <text x="16" y="62" fill="#e6edf3" font-size="34" font-weight="700">₺864.836</text>
    <text x="16" y="82" fill="#8b949e" font-size="13">$18.626</text>
  </g>
  <g transform="translate(318,72)">
    <rect width="190" height="96" rx="8" fill="#161b22"/>
    <text x="16" y="26" fill="#6e7681" font-size="11" letter-spacing="1">GÜNLÜK P&amp;L</text>
    <text x="16" y="58" fill="#3fb950" font-size="22" font-weight="700">▲ +1.291 ₺</text>
    <text x="16" y="80" fill="#3fb950" font-size="12">+0.15%</text>
  </g>
  <g transform="translate(524,72)">
    <rect width="250" height="96" rx="8" fill="#161b22"/>
    <text x="16" y="26" fill="#6e7681" font-size="11" letter-spacing="1">NET DEĞER TRENDİ</text>
    <polyline points="16,78 60,72 104,74 148,64 192,58 226,46" fill="none" stroke="#3fb950" stroke-width="2"/>
    <text x="150" y="26" fill="#8b949e" font-size="11">+1.2% · 7 gün</text>
  </g>
  <g transform="translate(790,72)">
    <rect width="230" height="96" rx="8" fill="#161b22"/>
    <text x="16" y="26" fill="#6e7681" font-size="11" letter-spacing="1">VARLIK DAĞILIMI</text>
    <rect x="16" y="40" width="120" height="11" rx="2" fill="#d29922"/>
    <rect x="136" y="40" width="44" height="11" fill="#388bfd"/>
    <rect x="180" y="40" width="38" height="11" rx="2" fill="#3fb950"/>
    <text x="16" y="74" fill="#8b949e" font-size="11">Emtia · Nakit · Hisse · Kripto</text>
  </g>
  <g transform="translate(1036,72)">
    <rect width="132" height="96" rx="8" fill="#161b22"/>
    <text x="16" y="26" fill="#6e7681" font-size="11" letter-spacing="1">VERİ KALİTESİ</text>
    <text x="16" y="60" fill="#e6edf3" font-size="22" font-weight="700">8/9</text>
    <text x="16" y="80" fill="#8b949e" font-size="11">canlı</text>
  </g>

  <!-- risk ribbon -->
  <g transform="translate(32,184)">
    <rect width="1136" height="26" rx="4" fill="#161b22"/>
    <rect x="10" y="6" width="64" height="14" rx="3" fill="rgba(248,81,73,0.18)"/>
    <text x="18" y="16" fill="#f85149" font-size="9" font-weight="700">1 KRİTİK</text>
    <text x="86" y="17" fill="#e6edf3" font-size="11">Konsantrasyon — Altın ağırlığı net değerin %64'ü · AI risk analizi</text>
  </g>

  <!-- title block -->
  <text x="32" y="268" fill="#e6edf3" font-size="30" font-weight="700">EFA FinOps Terminal</text>
  <text x="32" y="300" fill="#8b949e" font-size="15">Claude-native finans agent template — canlı net-değer · AI risk bulguları · senaryo · token takibi</text>

  <!-- feature chips -->
  <g font-size="12" fill="#8b949e">
    <rect x="32"  y="324" width="186" height="28" rx="6" fill="#161b22" stroke="#21262d"/><text x="46" y="342">5 Skill + 2 Subagent</text>
    <rect x="230" y="324" width="200" height="28" rx="6" fill="#161b22" stroke="#21262d"/><text x="244" y="342">Hisse · Nakit · Emtia · Kripto</text>
    <rect x="442" y="324" width="180" height="28" rx="6" fill="#161b22" stroke="#21262d"/><text x="456" y="342">UI'dan portföy + arama</text>
    <rect x="634" y="324" width="178" height="28" rx="6" fill="#161b22" stroke="#21262d"/><text x="648" y="342">Sıfır bağımlılık · Docker</text>
  </g>
  <text x="32" y="392" fill="#6e7681" font-size="11">Yatırım tavsiyesi değildir · fiyatlar gecikmeli/indikatif olabilir</text>
</svg>
